<?xml version="1.0" encoding="utf-8"?>
<!-- Generator: Adobe Illustrator 21.1.0, SVG Export Plug-In . SVG Version: 6.00 Build 0)  -->
<svg version="1.1" id="Layer_1" xmlns="http://www.w3.org/2000/svg" xmlns:xlink="http://www.w3.org/1999/xlink" x="0px" y="0px"
	 viewBox="0 0 87.2 86.9" style="enable-background:new 0 0 87.2 86.9;" xml:space="preserve">
<style type="text/css">
	.st0{fill:none;stroke:#000000;stroke-width:3;stroke-miterlimit:10;}
	.st1{fill:none;stroke:#231F20;stroke-width:5;stroke-linejoin:round;stroke-miterlimit:10;}
</style>
<title>Artboard 1</title>
<path class="st0" d="M61.3,29.5h-37c-1.5,0-2.8-1.3-2.8-2.8V15.8c0-1.5,1.3-2.8,2.8-2.8h37c1.5,0,2.8,1.3,2.8,2.8v10.9
	C64.1,28.2,62.9,29.5,61.3,29.5z"/>
<path class="st0" d="M67.8,70.8H18.2c-2.1,0-3.8-1.9-3.8-4.2V50.4c0-2.3,1.7-4.2,3.8-4.2h49.6c2.1,0,3.8,1.9,3.8,4.2v16.3
	C71.6,68.9,69.9,70.8,67.8,70.8z"/>
<path class="st1" d="M76.6,80.4H10.1c-2.5,0-4.6-2.1-4.6-4.6V9.3c0-2.5,2.1-4.6,4.6-4.6h51.5c10.8,0,19.6,8.8,19.6,19.6v51.5
	C81.2,78.3,79.1,80.4,76.6,80.4z"/>
</svg>
