<?xml version="1.0" encoding="utf-8"?>
<!-- Generator: Adobe Illustrator 21.1.0, SVG Export Plug-In . SVG Version: 6.00 Build 0)  -->
<svg version="1.1" id="Layer_1" xmlns="http://www.w3.org/2000/svg" xmlns:xlink="http://www.w3.org/1999/xlink" x="0px" y="0px"
	 viewBox="0 0 71 75" style="enable-background:new 0 0 71 75;" xml:space="preserve">
<title>Artboard 1</title>
<polygon points="71,0 0,0 0,71 21,71 21,66.2 6,66.2 6,4.7 65,4.7 65,66.2 49,66.2 49,71 71,71 "/>
<polygon points="30,62 30,75 40,75 40,62 46,62 40.5,53 35,44 29.5,53 24,62 "/>
<rect x="10.9" y="13" width="13.2" height="11.2"/>
<rect x="28.4" y="13" width="30.7" height="11.2"/>
<rect x="10.9" y="28.7" width="13.2" height="11.2"/>
<rect x="28.4" y="28.7" width="13.2" height="11.2"/>
<rect x="46" y="28.7" width="13.2" height="11.2"/>
</svg>
