<svg id="Layer_1" data-name="Layer 1" xmlns="http://www.w3.org/2000/svg" viewBox="0 0 71 74.97"><defs><style>.cls-1{fill:#fff;}</style></defs><title>Artboard 1</title><polygon class="cls-1" points="71 0 0 0 0 70.97 21 70.97 21 66.24 6 66.24 6 4.73 65 4.73 65 66.24 49 66.24 49 70.97 71 70.97 71 0"/><polygon class="cls-1" points="30 61.97 30 74.97 40 74.97 40 61.97 45.96 61.97 40.48 52.97 35 43.97 29.52 52.97 24.04 61.97 30 61.97"/><rect class="cls-1" x="10.87" y="11.02" width="13.17" height="11.17"/><rect class="cls-1" x="28.42" y="11.02" width="30.71" height="11.17"/><rect class="cls-1" x="10.87" y="26.68" width="13.17" height="11.17"/><rect class="cls-1" x="28.42" y="26.68" width="13.17" height="11.17"/><rect class="cls-1" x="45.96" y="26.68" width="13.17" height="11.17"/></svg>